{"title":"Blonde-Girls-Gets-Painful-Anal-Sex[truehdporn].mp4","uid":7543056,"size":876220691,"categoryP":"porn","categoryS":"movies","magnet":"?xt=urn:btih:b8ae145495587ebfdfdb2714cfef4f6545eb9085&amp;dn=Blonde-Girls-Gets-Painful-Anal-Sex%5Btruehdporn%5D.mp4&amp;tr=udp%3A%2F%2Ftracker.openbittorrent.com%3A80&amp;tr=udp%3A%2F%2Fopen.demonii.com%3A1337&amp;tr=udp%3A%2F%2Ftracker.coppersurfer.tk%3A6969&amp;tr=udp%3A%2F%2Fexodus.desync.com%3A6969","seeders":0,"leechers":0,"uploader":"hdporn","files":1,"time":1345269474,"description":"Format : MPEG-4\nFormat profile : Base Media\nCodec ID : isom\nFile size : 836 MiB\nDuration : 29mn 46s\nOverall bit rate mode : Variable\nOverall bit rate : 3 924 Kbps\nWriting application : Lavf52.64.2\n\nVideo\nID : 1\nFormat : AVC\nFormat/Info : Advanced Video Codec\nFormat profile : &lt;a class=&quot;__cf_email__&quot; href=&quot;/cdn-cgi/l/email-protection&quot; data-cfemail=&quot;a2eacbc5cae2ee968c92&quot;&gt;[email&amp;#160;protected]&lt;/a&gt;&lt;script data-cfhash='f9e31' type=&quot;text/javascript&quot;&gt;\n/* &lt;![CDATA[ */!function(){try{var t=&quot;currentScript&quot;in document?document.currentScript:function(){for(var t=document.getElementsByTagName(&quot;script&quot;),e=t.length;e--;)if(t[e].getAttribute(&quot;data-cfhash&quot;))return t[e]}();if(t&amp;&amp;t.previousSibling){var e,r,n,i,c=t.previousSibling,a=c.getAttribute(&quot;data-cfemail&quot;);if(a){for(e=&quot;&quot;,r=parseInt(a.substr(0,2),16),n=2;a.length-n;n+=2)i=parseInt(a.substr(n,2),16)^r,e+=String.fromCharCode(i);e=document.createTextNode(e),c.parentNode.replaceChild(e,c)}t.parentNode.removeChild(t);}}catch(u){}}()/* ]]&gt; */&lt;/script&gt;\nFormat settings, CABAC : Yes\nFormat settings, ReFrames : 4 frames\nCodec ID : avc1\nCodec ID/Info : Advanced Video Coding\nDuration : 29mn 46s\nBit rate mode : Variable\nBit rate : 3 868 Kbps\nWidth : 1 920 pixels\nHeight : 1 080 pixels\nDisplay aspect ratio : 16:9\nFrame rate mode : Constant\nFrame rate : 29.970 fps\nColor space : YUV\nChroma subsampling : 4:2:0\nBit depth : 8 bits\nScan type : Progressive\nBits/(Pixel*Frame) : 0.062\nStream size : 823 MiB (99%)\n\nAudio\nID : 2\nFormat : AAC\nFormat/Info : Advanced Audio Codec\nFormat profile : LC\nCodec ID : 40\nDuration : 29mn 46s\nBit rate mode : Variable\nBit rate : 53.0 Kbps\nChannel(s) : 2 channels\nChannel positions : Front: L R\nSampling rate : 44.1 KHz\nCompression mode : Lossy\nStream size : 11.3 MiB (1%)","torrent":{"xt":"urn:btih:b8ae145495587ebfdfdb2714cfef4f6545eb9085","amp;dn":"Blonde-Girls-Gets-Painful-Anal-Sex%5Btruehdporn%5D.mp4","amp;tr":["udp%3A%2F%2Ftracker.openbittorrent.com%3A80","udp%3A%2F%2Fopen.demonii.com%3A1337","udp%3A%2F%2Ftracker.coppersurfer.tk%3A6969","udp%3A%2F%2Fexodus.desync.com%3A6969"],"infoHash":"b8ae145495587ebfdfdb2714cfef4f6545eb9085","infoHashBuffer":{"type":"Buffer","data":[184,174,20,84,149,88,126,191,223,219,39,20,207,239,79,101,69,235,144,133]},"announce":[],"urlList":[]}}